<svg id="jio-logo" xmlns="http://www.w3.org/2000/svg" width="39" height="39" viewBox="0 0 39 39">
  <path id="bg" d="M19.5,0A19.5,19.5,0,1,1,0,19.5,19.5,19.5,0,0,1,19.5,0Z" fill="#020d7f"/>
  <path id="jio" d="M-137.84-909.446a6.428,6.428,0,0,1-4.085-1.325,2.246,2.246,0,0,1-.743-2.75,1.253,1.253,0,0,1,.182-.32.069.069,0,0,0,.04-.064,5.222,5.222,0,0,1,.725-.892c.235-.228.359-.331.466-.331s.178.088.3.259a3.293,3.293,0,0,0,1.487,1.034,4.7,4.7,0,0,0,.569.12,2.309,2.309,0,0,0,.356.035,2.121,2.121,0,0,0,.4-.048,1.482,1.482,0,0,0,.988-.437,1.516,1.516,0,0,0,.489-1.2c.025-.315.051-2.553.064-4.373l0-.771c.019-3.326.019-3.326.307-3.681l0-.005.054-.067a2.638,2.638,0,0,1,1.61-.892,2.516,2.516,0,0,1,.476-.056,3.112,3.112,0,0,1,.512.056,2.293,2.293,0,0,1,1.38.713,1.985,1.985,0,0,1,.423.6l.128.25.013,4.368c.005,3.165-.006,4.477-.04,4.68a4.881,4.881,0,0,1-.312,1.333.236.236,0,0,0-.04.128.521.521,0,0,1-.064.2c-.017.036-.055.112-.1.2l-.123.25-.013.027a3.516,3.516,0,0,1-.512.82,5.136,5.136,0,0,1-2.216,1.672,6.754,6.754,0,0,1-2.359.448C-137.585-909.449-137.712-909.446-137.84-909.446Zm19.447-.079a6.5,6.5,0,0,1-1.122-.074,6.034,6.034,0,0,1-1.882-.64,6.659,6.659,0,0,1-2.674-2.724,2.83,2.83,0,0,1-.352-.851.443.443,0,0,0-.054-.187,1.635,1.635,0,0,1-.089-.32c-.017-.116-.05-.3-.076-.423a8.962,8.962,0,0,1,.022-2.051,5.916,5.916,0,0,1,.267-.971.787.787,0,0,0,.064-.187,4.965,4.965,0,0,1,.418-.86,1.247,1.247,0,0,0,.116-.2,4.726,4.726,0,0,1,.338-.441,6.143,6.143,0,0,1,3.088-2.127c.136-.041.354-.1.485-.138a1.8,1.8,0,0,1,.448-.076,2.181,2.181,0,0,0,.338-.04,2.678,2.678,0,0,1,.467-.023,11.849,11.849,0,0,1,1.224.059c.168.022.377.064.468.084s.28.086.423.128a6.212,6.212,0,0,1,3.756,3.12c.085.171.178.366.21.432a.507.507,0,0,1,.064.2.208.208,0,0,0,.044.128.728.728,0,0,1,.084.24c.013.054.029.128.046.2h0c.017.073.034.146.047.2a4.375,4.375,0,0,1,.164,1.159,4.539,4.539,0,0,1-.031.869c-.019.115-.064.4-.089.544a2.936,2.936,0,0,1-.084.379,7.54,7.54,0,0,1-.5,1.306,6.732,6.732,0,0,1-2.078,2.255,6.389,6.389,0,0,1-1.193.619.737.737,0,0,0-.2.064,6.057,6.057,0,0,1-1.027.268,6.482,6.482,0,0,1-1.125.077Zm.157-8.565a1.925,1.925,0,0,0-.439.058,1.812,1.812,0,0,0-.658.237.186.186,0,0,1-.112.053,3.14,3.14,0,0,0-.73.721,1.253,1.253,0,0,1-.085.175,2.824,2.824,0,0,0-.21,1.925,2.253,2.253,0,0,0,1.663,1.71,1.952,1.952,0,0,0,.565.079,2.35,2.35,0,0,0,1.543-.572,2.469,2.469,0,0,0,.788-1.566,1.955,1.955,0,0,0-.018-.788,2.215,2.215,0,0,0-.685-1.348,2.056,2.056,0,0,0-1.164-.631,2.468,2.468,0,0,0-.457-.057Zm-9.685,8.335c-.117,0-.256,0-.418-.008-.79-.027-.941-.069-1.343-.375a2.16,2.16,0,0,1-.787-1.23c-.035-.145-.049-1.354-.049-4.31v-.237c0-4.111,0-4.111.23-4.569l.015-.03a2.109,2.109,0,0,1,.623-.718,2.158,2.158,0,0,1,1.513-.365h.079a5.384,5.384,0,0,1,.789.049,2.059,2.059,0,0,1,1.5,1.407c.05.175.064,1.005.064,4.44v.264c0,4.185,0,4.185-.212,4.6l-.011.022a2.949,2.949,0,0,1-.707.779,2.3,2.3,0,0,1-1.28.285Zm-.217-12.86h-.846l-.334-.16a1.772,1.772,0,0,1-.57-.4,1.82,1.82,0,0,1-.427-.593,2.709,2.709,0,0,1,.049-2.162,2.521,2.521,0,0,1,.81-.8.21.21,0,0,0,.12-.044.847.847,0,0,1,.267-.107,6.542,6.542,0,0,1,1.1-.067,3.684,3.684,0,0,1,.738.045,2.3,2.3,0,0,1,.743.357,1.806,1.806,0,0,1,.712,1.016,4.439,4.439,0,0,1,0,1.489,2.1,2.1,0,0,1-1.291,1.343,2.972,2.972,0,0,1-1.066.086Z" transform="translate(146.614 936.129)" fill="#fff"/>
</svg>
